# xmcd
#
# Track frame offsets: 
#        150
#        12585
#        25714
#        35551
#        49217
#        60442
#        71706
#        84459
#        95345
#        107890
#        119463
#        134081
#        146177
#        157282
#        171342
#        182408
#        196554
#        206554
#        220120
#        233907
#
# Disc length: 3279 seconds
#
# Revision: 0
# Processed by: cddbd v1.5.2PL0 Copyright (c) Steve Scherf et al.
# Submitted via: ExactAudioCopyFreeDBPlugin 1.0
#
DISCID=270ccd14
DTITLE=Various Artist - 20 Biggest #1 Country Hits
DYEAR=2007
DGENRE=Country
TTITLE0=Johnny Cash - Walk The Line
TTITLE1=Hank Williams - Jambalaya (On the Bayou)
TTITLE2=Merle Haggard - Mama Tried
TTITLE3=Willie Nelson - Heartbreak Hotel
TTITLE4=Conway Twitty - Hello Darlin
TTITLE5=Ray Price - Crazy Arms
TTITLE6=Charlie Rich - The Most Beutiful Girl
TTITLE7=George Jones - Tender Years
TTITLE8=Porter Wagoner - A Satisfied Mind
TTITLE9=Eddy Arnold - Bouquet of Roses
TTITLE10=Jeannie C. Riley - Harper Valley P.T.A.
TTITLE11=Johnny Paycheck - Take This Job and Shove It
TTITLE12=Marty Robbins - Singin the Blues
TTITLE13=Ricky Van Shelton - I'LL Leave This World Loving You
TTITLE14=Rodney Crowell - Above and Beyond (The Call of Love)
TTITLE15=Lee Greenwood - Dixie Road
TTITLE16=Jim Reeves - He'll Have To Go
TTITLE17=Glen Campbell - Rhinestone Cowboy
TTITLE18=Tanya Tucker - Blood Red and Goin' Down
TTITLE19=Tammy Wynette - 'Til I  Get It Right
EXTD=
EXTT0=
EXTT1=
EXTT2=
EXTT3=
EXTT4=
EXTT5=
EXTT6=
EXTT7=
EXTT8=
EXTT9=
EXTT10=
EXTT11=
EXTT12=
EXTT13=
EXTT14=
EXTT15=
EXTT16=
EXTT17=
EXTT18=
EXTT19=
PLAYORDER=
